<svg width="208" height="31" viewBox="0 0 208 31" fill="none" xmlns="http://www.w3.org/2000/svg">
<g style="mix-blend-mode:darken" filter="url(#filter0_d_1_2)">
<path d="M4.80041 18V1.2L10.8244 1.2L14.1604 15.84H14.5924V1.2H17.7124V18H11.6884L8.35241 3.36H7.92041V18H4.80041ZM27.0705 18.336C26.2225 18.336 25.4625 18.192 24.7905 17.904C24.1185 17.6 23.5825 17.168 23.1825 16.608C22.7985 16.032 22.6065 15.336 22.6065 14.52C22.6065 13.704 22.7985 13.024 23.1825 12.48C23.5825 11.92 24.1265 11.504 24.8145 11.232C25.5185 10.944 26.3185 10.8 27.2145 10.8H30.4785V10.128C30.4785 9.568 30.3025 9.112 29.9505 8.76C29.5985 8.392 29.0385 8.208 28.2705 8.208C27.5185 8.208 26.9585 8.384 26.5905 8.736C26.2225 9.072 25.9825 9.512 25.8705 10.056L23.0865 9.12C23.2785 8.512 23.5825 7.96 23.9985 7.464C24.4305 6.952 24.9985 6.544 25.7025 6.24C26.4225 5.92 27.2945 5.76 28.3185 5.76C29.8865 5.76 31.1265 6.152 32.0385 6.936C32.9505 7.72 33.4065 8.856 33.4065 10.344V14.784C33.4065 15.264 33.6305 15.504 34.0785 15.504H35.0385V18H33.0225C32.4305 18 31.9425 17.856 31.5585 17.568C31.1745 17.28 30.9825 16.896 30.9825 16.416V16.392H30.5265C30.4625 16.584 30.3185 16.84 30.0945 17.16C29.8705 17.464 29.5185 17.736 29.0385 17.976C28.5585 18.216 27.9025 18.336 27.0705 18.336ZM27.5985 15.888C28.4465 15.888 29.1345 15.656 29.6625 15.192C30.2065 14.712 30.4785 14.08 30.4785 13.296V13.056H27.4305C26.8705 13.056 26.4305 13.176 26.1105 13.416C25.7905 13.656 25.6305 13.992 25.6305 14.424C25.6305 14.856 25.7985 15.208 26.1345 15.48C26.4705 15.752 26.9585 15.888 27.5985 15.888ZM41.4658 18L37.6738 6.096H40.8898L43.6498 15.792H44.0818L46.8418 6.096H50.0578L46.2658 18H41.4658ZM61.6703 18.336C60.5983 18.336 59.7743 18.152 59.1983 17.784C58.6223 17.416 58.1983 17.008 57.9263 16.56H57.4943V18H54.5183V1.2L57.5423 1.2V7.464H57.9743C58.1503 7.176 58.3823 6.904 58.6703 6.648C58.9743 6.392 59.3663 6.184 59.8463 6.024C60.3423 5.848 60.9503 5.76 61.6703 5.76C62.6303 5.76 63.5183 6 64.3343 6.48C65.1503 6.944 65.8063 7.632 66.3023 8.544C66.7983 9.456 67.0463 10.56 67.0463 11.856V12.24C67.0463 13.536 66.7983 14.64 66.3023 15.552C65.8063 16.464 65.1503 17.16 64.3343 17.64C63.5183 18.104 62.6303 18.336 61.6703 18.336ZM60.7583 15.696C61.6863 15.696 62.4623 15.4 63.0863 14.808C63.7103 14.2 64.0223 13.32 64.0223 12.168V11.928C64.0223 10.776 63.7103 9.904 63.0863 9.312C62.4783 8.704 61.7023 8.4 60.7583 8.4C59.8303 8.4 59.0543 8.704 58.4303 9.312C57.8063 9.904 57.4943 10.776 57.4943 11.928V12.168C57.4943 13.32 57.8063 14.2 58.4303 14.808C59.0543 15.4 59.8303 15.696 60.7583 15.696ZM75.919 18.336C75.071 18.336 74.311 18.192 73.639 17.904C72.967 17.6 72.431 17.168 72.031 16.608C71.647 16.032 71.455 15.336 71.455 14.52C71.455 13.704 71.647 13.024 72.031 12.48C72.431 11.92 72.975 11.504 73.663 11.232C74.367 10.944 75.167 10.8 76.063 10.8H79.327V10.128C79.327 9.568 79.151 9.112 78.799 8.76C78.447 8.392 77.887 8.208 77.119 8.208C76.367 8.208 75.807 8.384 75.439 8.736C75.071 9.072 74.831 9.512 74.719 10.056L71.935 9.12C72.127 8.512 72.431 7.96 72.847 7.464C73.279 6.952 73.847 6.544 74.551 6.24C75.271 5.92 76.143 5.76 77.167 5.76C78.735 5.76 79.975 6.152 80.887 6.936C81.799 7.72 82.255 8.856 82.255 10.344V14.784C82.255 15.264 82.479 15.504 82.927 15.504H83.887V18H81.871C81.279 18 80.791 17.856 80.407 17.568C80.023 17.28 79.831 16.896 79.831 16.416V16.392H79.375C79.311 16.584 79.167 16.84 78.943 17.16C78.719 17.464 78.367 17.736 77.887 17.976C77.407 18.216 76.751 18.336 75.919 18.336ZM76.447 15.888C77.295 15.888 77.983 15.656 78.511 15.192C79.055 14.712 79.327 14.08 79.327 13.296V13.056H76.279C75.719 13.056 75.279 13.176 74.959 13.416C74.639 13.656 74.479 13.992 74.479 14.424C74.479 14.856 74.647 15.208 74.983 15.48C75.319 15.752 75.807 15.888 76.447 15.888ZM88.498 18V6.096H91.474V7.44H91.906C92.082 6.96 92.37 6.608 92.77 6.384C93.186 6.16 93.666 6.048 94.21 6.048H95.65V8.736H94.162C93.394 8.736 92.762 8.944 92.266 9.36C91.77 9.76 91.522 10.384 91.522 11.232V18H88.498Z" fill="#222222"/>
<path d="M108.811 18V1.2H115.723C116.779 1.2 117.707 1.416 118.507 1.848C119.323 2.264 119.955 2.856 120.403 3.624C120.867 4.392 121.099 5.304 121.099 6.36V6.696C121.099 7.736 120.859 8.648 120.379 9.432C119.915 10.2 119.275 10.8 118.459 11.232C117.659 11.648 116.747 11.856 115.723 11.856L111.979 11.856V18H108.811ZM111.979 8.976H115.411C116.163 8.976 116.771 8.768 117.235 8.352C117.699 7.936 117.931 7.368 117.931 6.648V6.408C117.931 5.688 117.699 5.12 117.235 4.704C116.771 4.288 116.163 4.08 115.411 4.08H111.979V8.976ZM125.792 18V6.096H128.768V7.44L129.2 7.44C129.376 6.96 129.664 6.608 130.064 6.384C130.48 6.16 130.96 6.048 131.504 6.048H132.944V8.736H131.456C130.688 8.736 130.056 8.944 129.56 9.36C129.064 9.76 128.816 10.384 128.816 11.232V18H125.792ZM142.949 18.336C141.765 18.336 140.701 18.096 139.757 17.616C138.813 17.136 138.069 16.44 137.525 15.528C136.981 14.616 136.709 13.52 136.709 12.24V11.856C136.709 10.576 136.981 9.48 137.525 8.568C138.069 7.656 138.813 6.96 139.757 6.48C140.701 6 141.765 5.76 142.949 5.76C144.133 5.76 145.197 6 146.141 6.48C147.085 6.96 147.829 7.656 148.373 8.568C148.917 9.48 149.189 10.576 149.189 11.856V12.24C149.189 13.52 148.917 14.616 148.373 15.528C147.829 16.44 147.085 17.136 146.141 17.616C145.197 18.096 144.133 18.336 142.949 18.336ZM142.949 15.648C143.877 15.648 144.645 15.352 145.253 14.76C145.861 14.152 146.165 13.288 146.165 12.168V11.928C146.165 10.808 145.861 9.952 145.253 9.36C144.661 8.752 143.893 8.448 142.949 8.448C142.021 8.448 141.253 8.752 140.645 9.36C140.037 9.952 139.733 10.808 139.733 11.928V12.168C139.733 13.288 140.037 14.152 140.645 14.76C141.253 15.352 142.021 15.648 142.949 15.648ZM152.173 22.8V20.208H153.757C154.205 20.208 154.429 19.968 154.429 19.488V6.096H157.453V20.112C157.453 20.928 157.213 21.576 156.733 22.056C156.253 22.552 155.613 22.8 154.813 22.8H152.173ZM155.941 4.704C155.397 4.704 154.933 4.528 154.549 4.176C154.181 3.824 153.997 3.36 153.997 2.784C153.997 2.208 154.181 1.744 154.549 1.392C154.933 1.04 155.397 0.863999 155.941 0.863999C156.501 0.863999 156.965 1.04 157.333 1.392C157.701 1.744 157.885 2.208 157.885 2.784C157.885 3.36 157.701 3.824 157.333 4.176C156.965 4.528 156.501 4.704 155.941 4.704ZM168.627 18.336C167.443 18.336 166.395 18.088 165.483 17.592C164.587 17.08 163.883 16.368 163.371 15.456C162.875 14.528 162.627 13.44 162.627 12.192V11.904C162.627 10.656 162.875 9.576 163.371 8.664C163.867 7.736 164.563 7.024 165.459 6.528C166.355 6.016 167.395 5.76 168.579 5.76C169.747 5.76 170.763 6.024 171.627 6.552C172.491 7.064 173.163 7.784 173.643 8.712C174.123 9.624 174.363 10.688 174.363 11.904V12.936H165.699C165.731 13.752 166.035 14.416 166.611 14.928C167.187 15.44 167.891 15.696 168.723 15.696C169.571 15.696 170.195 15.512 170.595 15.144C170.995 14.776 171.299 14.368 171.507 13.92L173.979 15.216C173.755 15.632 173.427 16.088 172.995 16.584C172.579 17.064 172.019 17.48 171.315 17.832C170.611 18.168 169.715 18.336 168.627 18.336ZM165.723 10.68H171.291C171.227 9.992 170.947 9.44 170.451 9.024C169.971 8.608 169.339 8.4 168.555 8.4C167.739 8.4 167.091 8.608 166.611 9.024C166.131 9.44 165.835 9.992 165.723 10.68ZM185.046 18.336C183.894 18.336 182.846 18.096 181.902 17.616C180.974 17.136 180.238 16.44 179.694 15.528C179.15 14.616 178.878 13.512 178.878 12.216V11.88C178.878 10.584 179.15 9.48 179.694 8.568C180.238 7.656 180.974 6.96 181.902 6.48C182.846 6 183.894 5.76 185.046 5.76C186.182 5.76 187.158 5.96 187.974 6.36C188.79 6.76 189.446 7.312 189.942 8.016C190.454 8.704 190.79 9.488 190.95 10.368L188.022 10.992C187.958 10.512 187.814 10.08 187.59 9.696C187.366 9.312 187.046 9.008 186.63 8.784C186.23 8.56 185.726 8.448 185.118 8.448C184.51 8.448 183.958 8.584 183.462 8.856C182.982 9.112 182.598 9.504 182.31 10.032C182.038 10.544 181.902 11.176 181.902 11.928V12.168C181.902 12.92 182.038 13.56 182.31 14.088C182.598 14.6 182.982 14.992 183.462 15.264C183.958 15.52 184.51 15.648 185.118 15.648C186.03 15.648 186.718 15.416 187.182 14.952C187.662 14.472 187.966 13.848 188.094 13.08L191.022 13.776C190.814 14.624 190.454 15.4 189.942 16.104C189.446 16.792 188.79 17.336 187.974 17.736C187.158 18.136 186.182 18.336 185.046 18.336ZM200.078 18C199.294 18 198.654 17.76 198.158 17.28C197.678 16.784 197.438 16.128 197.438 15.312V8.592H194.462V6.096H197.438V2.4H200.462V6.096H203.726V8.592H200.462V14.784C200.462 15.264 200.686 15.504 201.134 15.504H203.438V18H200.078Z" fill="#49A6E9"/>
</g>
<defs>
<filter id="filter0_d_1_2" x="0.800415" y="0.864014" width="206.926" height="29.936" filterUnits="userSpaceOnUse" color-interpolation-filters="sRGB">
<feFlood flood-opacity="0" result="BackgroundImageFix"/>
<feColorMatrix in="SourceAlpha" type="matrix" values="0 0 0 0 0 0 0 0 0 0 0 0 0 0 0 0 0 0 127 0" result="hardAlpha"/>
<feOffset dy="4"/>
<feGaussianBlur stdDeviation="2"/>
<feComposite in2="hardAlpha" operator="out"/>
<feColorMatrix type="matrix" values="0 0 0 0 0 0 0 0 0 0 0 0 0 0 0 0 0 0 0.25 0"/>
<feBlend mode="normal" in2="BackgroundImageFix" result="effect1_dropShadow_1_2"/>
<feBlend mode="normal" in="SourceGraphic" in2="effect1_dropShadow_1_2" result="shape"/>
</filter>
</defs>
</svg>
